<svg id="Group_1092" data-name="Group 1092" xmlns="http://www.w3.org/2000/svg" xmlns:xlink="http://www.w3.org/1999/xlink" width="38.534" height="38.534" viewBox="0 0 38.534 38.534">
  <defs>
    <clipPath id="clip-path">
      <rect id="Rectangle_1107" data-name="Rectangle 1107" width="38.534" height="38.534" fill="#3b9f6b"/>
    </clipPath>
  </defs>
  <g id="Group_1091" data-name="Group 1091" clip-path="url(#clip-path)">
    <path id="Path_209" data-name="Path 209" d="M17.761,20.772h-.44q-7.828,0-15.656,0A1.541,1.541,0,0,1,.2,20.005,1.5,1.5,0,0,1,1.375,17.77c.14-.012.281-.009.421-.009H17.761v-.4q0-7.843,0-15.686A1.546,1.546,0,0,1,18.521.2,1.5,1.5,0,0,1,20.765,1.4c.01.14.007.281.007.421q0,7.753,0,15.506v.436h.4q7.843,0,15.686,0a1.551,1.551,0,0,1,1.486.783,1.5,1.5,0,0,1-1.168,2.221c-.149.014-.3.01-.451.01H20.773v.388q0,7.843,0,15.686A1.557,1.557,0,0,1,20,38.337a1.5,1.5,0,0,1-2.23-1.186c-.012-.14-.008-.281-.008-.421q0-7.768,0-15.536v-.421" transform="translate(0 0.001)" fill="#3b9f6b"/>
  </g>
</svg>
