<svg xmlns="http://www.w3.org/2000/svg" xmlns:xlink="http://www.w3.org/1999/xlink" width="20" height="20" viewBox="0 0 20 20">
  <defs>
    <clipPath id="clip-path">
      <rect id="Rectangle_1099" data-name="Rectangle 1099" width="20" height="20" transform="translate(0 0)" fill="#fff"/>
    </clipPath>
  </defs>
  <g id="Group_1063" data-name="Group 1063" transform="translate(-0.256 -0.256)">
    <g id="Group_1062" data-name="Group 1062" transform="translate(0.256 0.256)" clip-path="url(#clip-path)">
      <path id="Path_185" data-name="Path 185" d="M210.266,6.027q0,2.322,0,4.643a1.3,1.3,0,0,1-1.374,1.375q-3.353,0-6.707,0A1.3,1.3,0,0,1,200.8,10.66q0-4.643,0-9.286a1.3,1.3,0,0,1,1.056-1.35A1.41,1.41,0,0,1,202.146,0q3.394,0,6.788,0a1.287,1.287,0,0,1,1.331,1.333q0,2.346,0,4.692m-8.6-.01q0,2.282,0,4.564a2.028,2.028,0,0,0,.007.225.4.4,0,0,0,.368.367,1.692,1.692,0,0,0,.193.007h6.6a1.759,1.759,0,0,0,.193-.007.4.4,0,0,0,.366-.333,1.261,1.261,0,0,0,.016-.241q0-4.58,0-9.159c0-.434-.145-.579-.581-.579h-6.579c-.442,0-.579.136-.579.577q0,2.29,0,4.58" transform="translate(-189.907 -0.286)" fill="#fff"/>
      <path id="Path_186" data-name="Path 186" d="M0,160.462q0-2.322,0-4.643a1.294,1.294,0,0,1,1.374-1.375q3.353,0,6.707,0a1.3,1.3,0,0,1,1.383,1.385q0,4.643,0,9.286a1.294,1.294,0,0,1-1.056,1.349,1.4,1.4,0,0,1-.288.022q-3.394,0-6.787,0A1.289,1.289,0,0,1,0,165.154q0-2.346,0-4.692m8.6.01q0-2.282,0-4.564a1.846,1.846,0,0,0-.009-.241.4.4,0,0,0-.35-.349,1.569,1.569,0,0,0-.209-.009h-6.6a1.792,1.792,0,0,0-.193.007.4.4,0,0,0-.366.333,1.264,1.264,0,0,0-.016.24q0,4.58,0,9.159c0,.435.145.58.58.58H8.023c.442,0,.579-.137.58-.577q0-2.29,0-4.58" transform="translate(-0.288 -146.129)" fill="#fff"/>
      <path id="Path_187" data-name="Path 187" d="M205.511,254.015h-3.369a1.293,1.293,0,0,1-1.36-1.356q-.006-2.088,0-4.175a1.289,1.289,0,0,1,1.35-1.351q3.385-.006,6.771,0a1.288,1.288,0,0,1,1.342,1.357q0,2.088,0,4.175a1.291,1.291,0,0,1-1.348,1.35q-1.693,0-3.385,0m.009-.859h3.306c.4,0,.559-.154.559-.553q0-2.024,0-4.047c0-.418-.142-.559-.565-.559h-6.611c-.428,0-.563.133-.563.556q0,2.016,0,4.031c0,.432.139.571.568.571h3.306" transform="translate(-189.886 -233.657)" fill="#fff"/>
      <path id="Path_188" data-name="Path 188" d="M4.728,0H8.1A1.292,1.292,0,0,1,9.464,1.365q.005,2.08,0,4.159A1.293,1.293,0,0,1,8.1,6.882q-3.377,0-6.755,0A1.29,1.29,0,0,1,0,5.531q0-2.1,0-4.191A1.288,1.288,0,0,1,1.342,0Q3.035,0,4.728,0m0,6.018H8.046c.414,0,.553-.138.553-.551q0-2.024,0-4.047C8.6,1,8.456.859,8.036.859H1.425c-.414,0-.565.151-.565.563q0,2.016,0,4.031c0,.422.141.565.559.565H4.724" transform="translate(-0.285 -0.284)" fill="#fff"/>
    </g>
  </g>
</svg>
