<svg xmlns="http://www.w3.org/2000/svg" xmlns:xlink="http://www.w3.org/1999/xlink" width="36.52" height="34.433" viewBox="0 0 36.52 34.433">
  <defs>
    <clipPath id="clip-path">
      <rect id="Rectangle_1106" data-name="Rectangle 1106" width="36.52" height="34.433" transform="translate(0)" fill="#df8787"/>
    </clipPath>
  </defs>
  <g id="Group_1086" data-name="Group 1086" style="mix-blend-mode: normal;isolation: isolate">
    <g id="Group_1085" data-name="Group 1085" transform="translate(0 0)" clip-path="url(#clip-path)">
      <path id="Path_207" data-name="Path 207" d="M14.634,0A14.628,14.628,0,1,1,0,14.623,14.648,14.648,0,0,1,14.634,0m-.016,1.48A13.148,13.148,0,1,0,27.776,14.618,13.171,13.171,0,0,0,14.618,1.48" transform="translate(4.159 2.032)" fill="#df8787"/>
      <path id="Path_208" data-name="Path 208" d="M205.66,203.215c.395.4.767.779,1.145,1.154q1.515,1.507,3.035,3.009a.785.785,0,0,1,.282.709.711.711,0,0,1-1.162.461,2.008,2.008,0,0,1-.2-.186q-1.964-1.963-3.926-3.928a2.195,2.195,0,0,1-.18-.241c-.108.1-.174.159-.237.221q-2,2-3.991,3.992a.8.8,0,0,1-.775.279.714.714,0,0,1-.42-1.13,2.161,2.161,0,0,1,.217-.234l3.925-3.9c.064-.063.124-.13.2-.207-.075-.079-.136-.146-.2-.209q-2-2-3.993-3.991a.807.807,0,0,1-.274-.712.624.624,0,0,1,.415-.552.731.731,0,0,1,.79.137c.229.212.445.438.666.659l3.459,3.458c.053.053.109.1.179.166.075-.071.141-.13.2-.193q2-2,4.007-4.009a.776.776,0,0,1,.718-.259.712.712,0,0,1,.432,1.163,2.854,2.854,0,0,1-.22.232l-3.927,3.927c-.053.053-.1.11-.168.179" transform="translate(-185.825 -186.627)" fill="#df8787"/>
    </g>
  </g>
</svg>
