<svg xmlns="http://www.w3.org/2000/svg" xmlns:xlink="http://www.w3.org/1999/xlink" width="81.81" height="19.945" viewBox="0 0 81.81 19.945">
  <defs>
    <clipPath id="clip-path">
      <rect id="Rectangle_1103" data-name="Rectangle 1103" width="81.81" height="19.945" fill="none"/>
    </clipPath>
    <linearGradient id="linear-gradient" x1="-0.002" y1="1.009" x2="0.002" y2="1.009" gradientUnits="objectBoundingBox">
      <stop offset="0" stop-color="#e0c0ff"/>
      <stop offset="1" stop-color="#a986ff"/>
    </linearGradient>
  </defs>
  <g id="Group_1071" data-name="Group 1071" clip-path="url(#clip-path)" style="mix-blend-mode: normal;isolation: isolate">
    <path id="Subtraction_2" data-name="Subtraction 2" d="M46.538,19.575h0C37.258,19.454,34,13.713,31.13,8.647,28.835,4.6,26.852,1.1,22.315,1.1c-.113,0-.224,0-.339.006s-.22-.005-.329-.005c-4.891,0-6.927,3.56-9.082,7.33a24.217,24.217,0,0,1-4.294,6A11.226,11.226,0,0,1,.554,17.36a.554.554,0,1,1,0-1.108c.1,0,.209,0,.312,0,5.873,0,8.093-3.877,10.443-7.982A23.926,23.926,0,0,1,15.248,2.69,9.729,9.729,0,0,1,21.977,0C27.661.188,29.962,4.23,32.4,8.51c2.788,4.9,5.671,9.959,13.859,9.959l.28,0,.259,0c4.388,0,6.589-2.349,8.164-4.646l.8.811c-.3.419-.591.794-.885,1.147A10.466,10.466,0,0,1,46.538,19.575Z" transform="translate(0.184 0.184)" stroke="rgba(117,117,117,0)" stroke-width="2" fill="url(#linear-gradient)" style="mix-blend-mode: luminosity;isolation: isolate"/>
    <path id="Path_203" data-name="Path 203" d="M52.014,14.553" transform="translate(2.259 0.632)" fill="none" stroke="#707070" stroke-width="1"/>
  </g>
</svg>
