<svg xmlns="http://www.w3.org/2000/svg" xmlns:xlink="http://www.w3.org/1999/xlink" width="19" height="19" viewBox="0 0 19 19">
  <defs>
    <clipPath id="clip-path">
      <rect id="Rectangle_1092" data-name="Rectangle 1092" width="11.057" height="11.552" fill="#fff"/>
    </clipPath>
  </defs>
  <g id="Group_1056" data-name="Group 1056" transform="translate(0 -0.187)">
    <g id="Rectangle_1093" data-name="Rectangle 1093" transform="translate(0 0.187)" fill="#3b9f6b" stroke="#3b9f6b" stroke-width="1">
      <rect width="19" height="19" rx="5" stroke="none"/>
      <rect x="0.5" y="0.5" width="18" height="18" rx="4.5" fill="none"/>
    </g>
    <g id="Group_1054" data-name="Group 1054" transform="translate(4.376 3.501)">
      <g id="Group_1053" data-name="Group 1053" clip-path="url(#clip-path)">
        <path id="Path_179" data-name="Path 179" d="M10.629,8.531H9.663s0-.011,0-.017c0-.022,0-.044,0-.066a1.773,1.773,0,0,0-.01-.2.642.642,0,0,0-.314-.481.67.67,0,0,0-.8.073l-.04.037V7.008c0-1.464,0-2.978,0-4.467a.539.539,0,0,0-.166-.407C7.754,1.564,7.127.937,6.353.16A.509.509,0,0,0,5.971,0h0C4.5,0,3,0,1.548,0H.434A.379.379,0,0,0,0,.437Q0,5.775,0,11.113c0,.3.136.438.44.438H8.076c.021,0,.045,0,.07,0a.35.35,0,0,0,.321-.236,1.23,1.23,0,0,0,.1.091.658.658,0,0,0,.407.148.682.682,0,0,0,.264-.056.647.647,0,0,0,.412-.537,1.458,1.458,0,0,0,.009-.189v-.03c0-.011,0-.035,0-.055h.967a.378.378,0,0,0,.426-.426q0-.648,0-1.3a.378.378,0,0,0-.428-.432M6.4,1.337q0-.038,0-.075l.833.832H7.151c-.246,0-.5,0-.749,0,0-.253,0-.51,0-.758m2.543,9.318c0,.027,0,.053,0,.077s0,.034,0,.049c-.193-.188-.386-.382-.573-.569L8.2,10.035,8.114,9.95l-.343-.343L8.946,8.432q0,.015,0,.031c0,.025,0,.051,0,.076a.68.68,0,0,0,.7.7c.2,0,.4,0,.6,0h.094c0,.18,0,.362,0,.539q0,.092,0,.184h-.1c-.183,0-.372,0-.559,0a.9.9,0,0,0-.339.07.657.657,0,0,0-.393.615M5.686,2.363c0,.306.137.443.444.443H7.778v.151c0,1.837,0,3.736,0,5.6a.09.09,0,0,1-.018.045c-.172.177-.35.354-.522.526l-.179.179a.37.37,0,0,0,0,.595l.191.191c.168.168.342.341.51.514a.1.1,0,0,1,.016.047c0,.057,0,.118,0,.181H.718q0-5.061,0-10.122H5.686v.458q0,.6,0,1.19" transform="translate(0 0)" fill="#fff"/>
        <path id="Path_180" data-name="Path 180" d="M77.713,280.465a.58.58,0,0,0-.135.018.357.357,0,0,0-.266.343.349.349,0,0,0,.261.335.769.769,0,0,0,.179.02h4.892a.712.712,0,0,0,.181-.021.347.347,0,0,0,.245-.411.367.367,0,0,0-.394-.284H77.713" transform="translate(-75.949 -275.52)" fill="#fff"/>
        <path id="Path_181" data-name="Path 181" d="M82.726,448.88H77.782a.583.583,0,0,0-.157.019.336.336,0,0,0-.251.294.325.325,0,0,0,.182.35.589.589,0,0,0,.242.048l1.476,0h3.415a1.035,1.035,0,0,0,.141-.007.343.343,0,0,0,.294-.264.336.336,0,0,0-.056-.3.42.42,0,0,0-.343-.146" transform="translate(-76.006 -440.966)" fill="#fff"/>
        <path id="Path_182" data-name="Path 182" d="M82.857,364.827a.637.637,0,0,0-.2-.024H77.77a1.088,1.088,0,0,0-.14.006.351.351,0,0,0-.053.687.657.657,0,0,0,.174.018h4.908a.673.673,0,0,0,.173-.018.351.351,0,0,0,.025-.669" transform="translate(-75.959 -358.37)" fill="#fff"/>
        <path id="Path_183" data-name="Path 183" d="M81.312,196.349H77.736a.652.652,0,0,0-.163.018.35.35,0,0,0,.029.686.852.852,0,0,0,.145.011H81.3a.864.864,0,0,0,.155-.013.35.35,0,0,0,.047-.677.626.626,0,0,0-.186-.025" transform="translate(-75.945 -192.887)" fill="#fff"/>
        <path id="Path_184" data-name="Path 184" d="M336.411,197.371c.071.009.14.01.207.012l.084,0,.136.006v-.015a1.367,1.367,0,0,0,.164-.005.346.346,0,0,0,.31-.332.339.339,0,0,0-.3-.358,4.72,4.72,0,0,0-.612,0,.335.335,0,0,0-.294.351.346.346,0,0,0,.3.338" transform="translate(-330.181 -193.204)" fill="#fff"/>
      </g>
    </g>
  </g>
</svg>
