<svg xmlns="http://www.w3.org/2000/svg" xmlns:xlink="http://www.w3.org/1999/xlink" width="28.826" height="29.216" viewBox="0 0 28.826 29.216">
  <defs>
    <clipPath id="clip-path">
      <rect id="Rectangle_1105" data-name="Rectangle 1105" width="28.826" height="29.216" fill="#a986ff"/>
    </clipPath>
  </defs>
  <g id="Group_1084" data-name="Group 1084" style="mix-blend-mode: normal;isolation: isolate">
    <g id="Group_1083" data-name="Group 1083" clip-path="url(#clip-path)" style="mix-blend-mode: normal;isolation: isolate">
      <path id="Path_205" data-name="Path 205" d="M2.553,9.107h.3c1.506,0,3.012,0,4.517,0a.814.814,0,0,1,.85,1.02.753.753,0,0,1-.583.591,1.715,1.715,0,0,1-.409.04q-2.917,0-5.834,0c-.748,0-1.042-.3-1.042-1.054q0-2.9,0-5.808c0-.647.3-1.031.818-1.039s.842.388.842,1.043q0,1.175,0,2.349c0,.083.007.165.014.31.087-.108.14-.168.186-.234A14.005,14.005,0,0,1,10.79.432a14.082,14.082,0,0,1,14.168,4.31,13.947,13.947,0,0,1,3.685,12.083A14.318,14.318,0,0,1,18.18,28.635,14.18,14.18,0,0,1,3.713,24.707,13.912,13.912,0,0,1,.036,18a.841.841,0,0,1,.551-1.092.82.82,0,0,1,1.051.683,12.712,12.712,0,0,0,2.747,5.4,12.606,12.606,0,0,0,9,4.511,12.562,12.562,0,0,0,10.105-3.86,12.417,12.417,0,0,0,3.575-7.361A12.861,12.861,0,0,0,20.971,3.547a12.221,12.221,0,0,0-7.387-1.863A12.717,12.717,0,0,0,2.651,8.827c-.032.061-.061.123-.089.186a.458.458,0,0,0-.008.094" transform="translate(0 0.001)" fill="#a986ff"/>
      <path id="Path_206" data-name="Path 206" d="M260.89,159.058h.332c1.23,0,2.46-.009,3.69.008a1.332,1.332,0,0,1,.653.182.742.742,0,0,1,.3.842.823.823,0,0,1-.686.619,1.476,1.476,0,0,1-.231.012q-2.387,0-4.774,0a.854.854,0,0,1-.946-.942q0-3.7,0-7.406a.833.833,0,0,1,1.119-.882.8.8,0,0,1,.531.7,2.473,2.473,0,0,1,.009.309q0,3.1,0,6.193Z" transform="translate(-245.847 -143.617)" fill="#a986ff"/>
    </g>
  </g>
</svg>
