<svg id="Group_1074" data-name="Group 1074" xmlns="http://www.w3.org/2000/svg" xmlns:xlink="http://www.w3.org/1999/xlink" width="18.145" height="22.657" viewBox="0 0 18.145 22.657">
  <defs>
    <clipPath id="clip-path">
      <rect id="Rectangle_1097" data-name="Rectangle 1097" width="18.145" height="22.657" fill="#3b9f6b"/>
    </clipPath>
  </defs>
  <g id="Group_1073" data-name="Group 1073" clip-path="url(#clip-path)">
    <path id="Path_188" data-name="Path 188" d="M129.863,211.122a5.088,5.088,0,0,1-.269.859.8.8,0,0,1-1.421.033,1.685,1.685,0,0,1,.017-1.768.778.778,0,0,1,1.36-.005,4.653,4.653,0,0,1,.313.881" transform="translate(-118.873 -194.986)" fill="#3b9f6b"/>
    <path id="Path_189" data-name="Path 189" d="M17.963,6.616Q14.746,3.411,11.541.2a.594.594,0,0,0-.462-.2Q6.75.01,2.422.006a2.954,2.954,0,0,0-.581.04A2.267,2.267,0,0,0,0,2.38Q0,6.854,0,11.328q0,4.447,0,8.894a2.271,2.271,0,0,0,2.416,2.433q6.652,0,13.3,0a2.932,2.932,0,0,0,.581-.041,2.268,2.268,0,0,0,1.838-2.36q0-6.6,0-13.2a.568.568,0,0,0-.183-.441M4.543,16.949a1.138,1.138,0,0,1-1.26,1.175c-.225,0-.451-.036-.707-.059l.089-.69c.178.01.335.025.491.025a.461.461,0,0,0,.5-.41,2.632,2.632,0,0,0,.043-.446c0-.751,0-1.5,0-2.274h.824s.024.017.024.03c0,.883.028,1.768-.009,2.65m2.5,1.022A2.5,2.5,0,0,1,5.133,17.9l.17-.677c.286.064.557.133.831.181a1.106,1.106,0,0,0,.342-.012.4.4,0,0,0,.388-.337.386.386,0,0,0-.255-.421c-.254-.122-.521-.219-.771-.348a1.045,1.045,0,0,1-.645-.844,1.061,1.061,0,0,1,.614-1.079A2.179,2.179,0,0,1,7.6,14.4l-.178.638c-.251-.05-.481-.108-.714-.138a.645.645,0,0,0-.361.045c-.113.059-.253.174-.267.28a.427.427,0,0,0,.185.336c.232.14.5.224.743.343a1.1,1.1,0,0,1,.744.946,1.067,1.067,0,0,1-.71,1.123m-.114-5.892a2.158,2.158,0,0,1-1.134-1.42,4.5,4.5,0,0,1-.121-.991,2.321,2.321,0,0,0-.086-.546.849.849,0,0,0-.7-.645.082.082,0,0,1-.05-.06q-.008-.366-.006-.731a.082.082,0,0,1,.049-.062.885.885,0,0,0,.753-.8,7.775,7.775,0,0,0,.063-.783A2.541,2.541,0,0,1,6.2,4.613a2.045,2.045,0,0,1,1.592-.8c.119,0,.239,0,.358,0,.052,0,.076.011.075.07q0,.354,0,.708c0,.057-.02.07-.074.072a3.164,3.164,0,0,0-.53.026,1.255,1.255,0,0,0-.992.934,2.427,2.427,0,0,0-.1.737,2.834,2.834,0,0,1-.138.915A1.845,1.845,0,0,1,5.947,8c-.015.015-.029.031-.039.042.1.138.214.262.3.4a2.325,2.325,0,0,1,.318,1.215,2.729,2.729,0,0,0,.138.93,1.267,1.267,0,0,0,1.239.859c.085,0,.17,0,.254,0,.045,0,.068.01.067.061,0,.241,0,.482,0,.723,0,.034,0,.061-.049.063a2.49,2.49,0,0,1-1.247-.211m4.907,4.054a1.834,1.834,0,0,1-2.31,1.945A1.737,1.737,0,0,1,8.18,16.408a2.831,2.831,0,0,1,.07-.841A1.787,1.787,0,0,1,10.318,14.2a1.763,1.763,0,0,1,1.515,1.746c0,.062,0,.124,0,.186m-1.145-3.884a4.4,4.4,0,0,1-.72.038c-.016,0-.046-.033-.046-.052,0-.246,0-.493,0-.739,0-.044.021-.054.059-.053.09,0,.18,0,.27,0a1.265,1.265,0,0,0,1.228-.851,2.255,2.255,0,0,0,.137-.794,2.95,2.95,0,0,1,.159-1.023,1.8,1.8,0,0,1,.437-.684c.011-.011.021-.023.026-.03-.105-.139-.214-.263-.3-.4a2.311,2.311,0,0,1-.317-1.207,2.768,2.768,0,0,0-.141-.946,1.266,1.266,0,0,0-1.229-.851c-.087,0-.175,0-.262,0-.046,0-.067-.011-.067-.062,0-.241,0-.482,0-.723,0-.035,0-.061.049-.062a2.528,2.528,0,0,1,1.2.191A2.153,2.153,0,0,1,12.35,5.441a3.832,3.832,0,0,1,.117.983,1.727,1.727,0,0,0,.1.608.848.848,0,0,0,.681.586c.048.008.06.029.06.073,0,.238,0,.477.006.716,0,.039-.005.065-.052.072a.833.833,0,0,0-.715.656,2.356,2.356,0,0,0-.081.547,3.776,3.776,0,0,1-.175,1.15,2.061,2.061,0,0,1-1.606,1.416m4.861,5.818c-.273,0-.546.013-.815-.009-.067-.006-.142-.116-.184-.194-.458-.837-.91-1.677-1.364-2.515v2.7h-.756v-3.8c.3,0,.58-.013.86.008a.35.35,0,0,1,.222.176c.423.785.836,1.576,1.253,2.365.007.013.026.019.033.024V14.26h.751Z" transform="translate(-0.001 0)" fill="#3b9f6b"/>
  </g>
</svg>
