<svg xmlns="http://www.w3.org/2000/svg" xmlns:xlink="http://www.w3.org/1999/xlink" width="29.216" height="29.216" viewBox="0 0 29.216 29.216">
  <defs>
    <clipPath id="clip-path">
      <rect id="Rectangle_1104" data-name="Rectangle 1104" width="29.216" height="29.216" fill="#a986ff"/>
    </clipPath>
  </defs>
  <g id="Group_1078" data-name="Group 1078" style="mix-blend-mode: normal;isolation: isolate">
    <g id="Group_1077" data-name="Group 1077" transform="translate(0 0)" clip-path="url(#clip-path)">
      <path id="Path_194" data-name="Path 194" d="M14.6,29.21a14.6,14.6,0,1,1,14.6-14.6,14.615,14.615,0,0,1-14.6,14.6m0-27.938A13.334,13.334,0,1,0,27.938,14.617,13.341,13.341,0,0,0,14.6,1.271" transform="translate(0.007 0.006)" fill="#a986ff"/>
      <path id="Path_195" data-name="Path 195" d="M306,177.844c0-.973,0-1.946,0-2.919a.641.641,0,0,1,.465-.7.609.609,0,0,1,.772.447,1.446,1.446,0,0,1,.029.339q0,2.68,0,5.359a.51.51,0,0,0,.167.4q3.213,3.2,6.419,6.415a2.327,2.327,0,0,1,.229.253.617.617,0,0,1-.859.869,1.89,1.89,0,0,1-.221-.2q-3.33-3.328-6.662-6.655a1.07,1.07,0,0,1-.343-.829c.015-.927.005-1.855.005-2.782" transform="translate(-292.022 -166.246)" fill="#a986ff"/>
      <path id="Path_196" data-name="Path 196" d="M307.043,70.469c0,.556-.3.86-.753.781a.581.581,0,0,1-.19-.069.9.9,0,0,1-.057-1.364.593.593,0,0,1,.645-.052.673.673,0,0,1,.355.7" transform="translate(-291.798 -66.506)" fill="#a986ff"/>
      <path id="Path_197" data-name="Path 197" d="M70.667,307.023c-.518,0-.82-.268-.772-.7a.691.691,0,0,1,.108-.292.941.941,0,0,1,1.06-.224.619.619,0,0,1,.379.679c-.049.348-.321.536-.775.536" transform="translate(-66.693 -291.777)" fill="#a986ff"/>
      <path id="Path_198" data-name="Path 198" d="M536.727,307.036c-.565,0-.875-.305-.788-.762a.585.585,0,0,1,.073-.188.9.9,0,0,1,1.364-.041.593.593,0,0,1,.042.645.671.671,0,0,1-.691.346" transform="translate(-511.459 -291.791)" fill="#a986ff"/>
      <path id="Path_199" data-name="Path 199" d="M306.113,536.7c0-.544.308-.853.765-.765a.563.563,0,0,1,.169.062.9.9,0,0,1,.055,1.377.6.6,0,0,1-.646.04c-.247-.125-.343-.338-.343-.713" transform="translate(-292.135 -511.451)" fill="#a986ff"/>
      <path id="Path_200" data-name="Path 200" d="M140.929,140.194a.626.626,0,0,1-.349.587.574.574,0,0,1-.6-.031.856.856,0,0,1-.492-.913.614.614,0,0,1,.925-.356.975.975,0,0,1,.521.713" transform="translate(-133.09 -133.011)" fill="#a986ff"/>
      <path id="Path_201" data-name="Path 201" d="M469.027,140.937a.622.622,0,0,1-.586-.342.577.577,0,0,1,.035-.623.853.853,0,0,1,.9-.482.614.614,0,0,1,.369.919.986.986,0,0,1-.715.528" transform="translate(-446.984 -133.099)" fill="#a986ff"/>
      <path id="Path_202" data-name="Path 202" d="M140.793,468.96a1.02,1.02,0,0,1-.591.741.541.541,0,0,1-.619-.062.593.593,0,0,1-.136-.859,2.11,2.11,0,0,1,.387-.379.543.543,0,0,1,.621-.034.626.626,0,0,1,.338.593" transform="translate(-132.955 -446.907)" fill="#a986ff"/>
    </g>
  </g>
</svg>
