<svg xmlns="http://www.w3.org/2000/svg" xmlns:xlink="http://www.w3.org/1999/xlink" width="53" height="30.529" viewBox="0 0 53 30.529">
  <defs>
    <clipPath id="clip-path">
      <rect id="Rectangle_1095" data-name="Rectangle 1095" width="33.402" height="29.624" fill="none"/>
    </clipPath>
  </defs>
  <g id="Group_1068" data-name="Group 1068" transform="translate(-719.5 -173.471)">
    <g id="Group_1067" data-name="Group 1067" transform="translate(729 173.471)">
      <g id="Group_1066" data-name="Group 1066" clip-path="url(#clip-path)">
        <path id="Path_185" data-name="Path 185" d="M32.781,25.271q-3.214-5.559-6.423-11.121L23.408,9.038l-.992-1.719C21.3,5.388,20.15,3.391,19.009,1.431A2.666,2.666,0,0,0,16.718,0H16.71a2.74,2.74,0,0,0-2.323,1.438q-.088.148-.174.3l-2.12,3.671L5.142,17.443,3.487,20.311q-1.529,2.65-3.059,5.3a2.64,2.64,0,0,0-.406,1.733A2.554,2.554,0,0,0,2.69,29.619q5.1,0,10.207,0H26.826c.39,0,.78,0,1.17,0l1.151,0c.565,0,1.134,0,1.7-.007a2.549,2.549,0,0,0,2.52-2.158,3.134,3.134,0,0,0-.584-2.187M18.849,15.46c0,.9.007,1.827-.008,2.738a1.933,1.933,0,0,1-1.707,1.918,2.092,2.092,0,0,1-2.508-1.441,1.989,1.989,0,0,1-.068-.509l0-.923c0-2.267-.01-4.611,0-6.915a1.939,1.939,0,0,1,1.67-1.946,3.7,3.7,0,0,1,.433-.026,2,2,0,0,1,2.12,1.492,2.851,2.851,0,0,1,.063.669c.005.925,0,1.867,0,2.777v.63l0,.341q0,.6,0,1.2m-3.656,7.227a2.145,2.145,0,1,1,1.5,3.671h-.006a2.149,2.149,0,0,1-1.494-3.671" transform="translate(0)" fill="#ffb400"/>
      </g>
    </g>
    <line id="Line_10" data-name="Line 10" x2="53" transform="translate(719.5 203.5)" fill="none" stroke="#d5d5d5" stroke-width="1"/>
  </g>
</svg>
